<?xml version="1.0" encoding="UTF-8" standalone="no"?>
<svg
   width="153"
   height="166"
   viewBox="0 0 153 166"
   fill="none"
   version="1.1"
   id="svg17"
   sodipodi:docname="cta-shape.svg"
   xml:space="preserve"
   inkscape:version="1.3.2 (091e20e, 2023-11-25, custom)"
   xmlns:inkscape="http://www.inkscape.org/namespaces/inkscape"
   xmlns:sodipodi="http://sodipodi.sourceforge.net/DTD/sodipodi-0.dtd"
   xmlns="http://www.w3.org/2000/svg"
   xmlns:svg="http://www.w3.org/2000/svg"><defs
     id="defs17" /><sodipodi:namedview
     id="namedview17"
     pagecolor="#ffffff"
     bordercolor="#000000"
     borderopacity="0.25"
     inkscape:showpageshadow="2"
     inkscape:pageopacity="0.0"
     inkscape:pagecheckerboard="0"
     inkscape:deskcolor="#d1d1d1"
     inkscape:zoom="3.0976695"
     inkscape:cx="76.50913"
     inkscape:cy="55.364201"
     inkscape:window-width="1920"
     inkscape:window-height="991"
     inkscape:window-x="-9"
     inkscape:window-y="-9"
     inkscape:window-maximized="1"
     inkscape:current-layer="svg17" /><g
     id="g46"
     style="fill:#ffffff;fill-opacity:0;stroke:#ffffff;stroke-opacity:1"
     transform="matrix(6.0194205,0,0,6.0194205,-126.93704,-112.8081)"><g
       id="g39"
       style="fill:#ffffff;fill-opacity:0;stroke:#ffffff;stroke-opacity:1" /><path
       id="path46"
       style="fill:#ffffff;fill-rule:evenodd;stroke:#ffffff;stroke-width:0.0581048;stroke-linecap:round;stroke-linejoin:round;stroke-opacity:1;fill-opacity:0"
       d="m 24.056033,22.440687 v 0 c 2.812823,2.073376 4.689363,5.801967 4.689363,10.088708 0,4.286741 -1.87654,8.015332 -4.689363,10.08871 v 0 l 7.163511,-4.34766 v 0.06107 l 1.508891,-4.469569 1.068345,-1.332556 1.121199,1.332556 1.456039,4.408494 7.163511,4.34766 v 0 c -2.812824,-2.073378 -4.689364,-5.801969 -4.689364,-10.08871 0,-4.286741 1.87654,-8.015332 4.689364,-10.088708 v 0 l -7.163511,4.286583 -0.257724,0.305374 -0.512226,3.884228 -1.034116,-0.525102 -0.773172,-1.633995 -0.773171,1.633995 -1.034116,0.525102 -0.512226,-3.884228 -0.257723,-0.305374 z"
       sodipodi:nodetypes="ccsccccccccccscccccccccccc" /></g></svg>
